<svg width="1200" height="800" viewBox="0 0 1200 800" xmlns="http://www.w3.org/2000/svg"><rect width="1200" height="800" rx="44" fill="#eee8e4"/><rect x="95" y="120" width="300" height="220" rx="24" fill="#fff"/><rect x="450" y="120" width="300" height="220" rx="24" fill="#fff"/><rect x="805" y="120" width="300" height="220" rx="24" fill="#fff"/><g fill="#8f5d6d"><rect x="145" y="175" width="200" height="22" rx="11"/><rect x="145" y="218" width="150" height="18" rx="9" opacity=".6"/><rect x="500" y="175" width="200" height="22" rx="11"/><rect x="500" y="218" width="160" height="18" rx="9" opacity=".6"/><rect x="855" y="175" width="200" height="22" rx="11"/><rect x="855" y="218" width="170" height="18" rx="9" opacity=".6"/></g><path d="M395 230h55M750 230h55" stroke="#8f5d6d" stroke-width="12" stroke-linecap="round"/><path d="M434 211l18 19-18 19M789 211l18 19-18 19" fill="none" stroke="#8f5d6d" stroke-width="12" stroke-linecap="round" stroke-linejoin="round"/><rect x="190" y="450" width="820" height="220" rx="28" fill="#211f22"/><g fill="#d9b8c2"><rect x="250" y="520" width="90" height="92" rx="12"/><rect x="390" y="480" width="90" height="132" rx="12"/><rect x="530" y="550" width="90" height="62" rx="12"/><rect x="670" y="500" width="90" height="112" rx="12"/><rect x="810" y="455" width="90" height="157" rx="12"/></g></svg>