<svg xmlns="http://www.w3.org/2000/svg" width="1600" height="900" viewBox="0 0 1600 900"><rect width="1600" height="900" fill="#f6f9fc"/><style>text{font-family:Arial,Helvetica,sans-serif;fill:#0d2856}.muted{fill:#52709a}.panel{fill:#fff;stroke:#d9e4ee;stroke-width:1.5}.green{fill:#0aa884}.dark{fill:#08345c}</style><rect width="235" height="900" class="dark"/><text x="35" y="58" font-size="26" fill="#fff" font-weight="800">Harborview</text><text x="35" y="88" font-size="15" fill="#c4d7e9">Operations</text><g font-size="18" fill="#dce8f5"><text x="45" y="160">Dashboard</text><rect x="10" y="185" width="215" height="50" rx="10" class="green"/><text x="45" y="216" fill="#fff">Branch Relocation</text><text x="45" y="285">Inventory</text><text x="45" y="340">Approvals</text><text x="45" y="395">Email Workflow</text><text x="45" y="450">Reports</text><text x="45" y="505">Settings</text></g><text x="265" y="90" font-size="44" font-weight="800">Branch Relocation</text><text x="265" y="125" font-size="19" class="muted">Move stock | Keep branches in sync | Automated approvals and notifications</text><rect x="1380" y="20" width="145" height="45" rx="9" fill="#dff8f0"/><text x="1410" y="49" font-size="17" font-weight="800" class="green">DEMO DATA</text><rect class="panel" x="255" y="165" width="310" height="120" rx="14"/><text x="280" y="205" font-size="19" font-weight="700">Opening Stock</text><text x="280" y="250" font-size="35" font-weight="800" class="">1,240</text><rect class="panel" x="585" y="165" width="310" height="120" rx="14"/><text x="610" y="205" font-size="19" font-weight="700">Transfer Balance</text><text x="610" y="250" font-size="35" font-weight="800" class="">320</text><rect class="panel" x="915" y="165" width="310" height="120" rx="14"/><text x="940" y="205" font-size="19" font-weight="700">Approval Status</text><text x="940" y="250" font-size="35" font-weight="800" class="green">Approved</text><rect class="panel" x="1245" y="165" width="310" height="120" rx="14"/><text x="1270" y="205" font-size="19" font-weight="700">Email Sent</text><text x="1270" y="250" font-size="35" font-weight="800" class="green">Completed</text><rect class="panel" x="255" y="305" width="485" height="535" rx="14"/><text x="280" y="350" font-size="23" font-weight="800">Create Relocation Request</text><text x="280" y="395" font-size="15" font-weight="700">From Branch</text><rect x="280" y="410" width="205" height="40" rx="7" fill="#f9fbfd" stroke="#cfdae6"/><text x="295" y="436" font-size="15">Rivermere Branch</text><text x="510" y="395" font-size="15" font-weight="700">To Branch</text><rect x="510" y="410" width="205" height="40" rx="7" fill="#f9fbfd" stroke="#cfdae6"/><text x="525" y="436" font-size="15">Lakeside Branch</text><text x="280" y="500" font-size="16" font-weight="700">Select Products</text><rect x="280" y="520" width="435" height="36" fill="#f2f6fa" stroke="#e0e7ef"/><text x="295" y="544" font-size="14">Color Notebook      420      120</text><rect x="280" y="560" width="435" height="36" fill="#fff" stroke="#e0e7ef"/><text x="295" y="584" font-size="14">Maple Pen           310      100</text><rect x="280" y="600" width="435" height="36" fill="#f2f6fa" stroke="#e0e7ef"/><text x="295" y="624" font-size="14">Wilson Backpack     240       80</text><rect x="280" y="640" width="435" height="36" fill="#fff" stroke="#e0e7ef"/><text x="295" y="664" font-size="14">Pine Water Bottle   250        0</text><rect x="280" y="680" width="435" height="36" fill="#f2f6fa" stroke="#e0e7ef"/><text x="295" y="704" font-size="14">Sunrise Mug         180        0</text><rect x="560" y="760" width="155" height="50" rx="8" class="green"/><text x="585" y="791" font-size="16" fill="#fff">Submit Request</text><rect class="panel" x="760" y="305" width="395" height="535" rx="14"/><text x="790" y="350" font-size="23" font-weight="800">Approval Status</text><circle cx="800" cy="405" r="13" class="green"/><text x="835" y="410" font-size="17" font-weight="700">Request Submitted</text><text x="835" y="436" font-size="14" class="muted">Completed</text><circle cx="800" cy="487" r="13" class="green"/><text x="835" y="492" font-size="17" font-weight="700">Inventory Review</text><text x="835" y="518" font-size="14" class="muted">Completed</text><circle cx="800" cy="569" r="13" class="green"/><text x="835" y="574" font-size="17" font-weight="700">Finance Approval</text><text x="835" y="600" font-size="14" class="muted">Completed</text><circle cx="800" cy="651" r="13" class="green"/><text x="835" y="656" font-size="17" font-weight="700">Operations Approval</text><text x="835" y="682" font-size="14" class="muted">Completed</text><circle cx="800" cy="733" r="13" class="green"/><text x="835" y="738" font-size="17" font-weight="700">Ready for Transfer</text><text x="835" y="764" font-size="14" class="muted">Completed</text><rect class="panel" x="1175" y="305" width="380" height="535" rx="14"/><text x="1205" y="350" font-size="23" font-weight="800">Email Workflow Status</text><circle cx="1215" cy="405" r="11" class="green"/><text x="1245" y="410" font-size="16" font-weight="700">Preparation</text><text x="1245" y="436" font-size="14" class="muted">Completed</text><circle cx="1215" cy="487" r="11" class="green"/><text x="1245" y="492" font-size="16" font-weight="700">Branch Notification</text><text x="1245" y="518" font-size="14" class="muted">Completed</text><circle cx="1215" cy="569" r="11" class="green"/><text x="1245" y="574" font-size="16" font-weight="700">Receiving Branch Notification</text><text x="1245" y="600" font-size="14" class="muted">Completed</text><circle cx="1215" cy="651" r="11" class="green"/><text x="1245" y="656" font-size="16" font-weight="700">Stakeholder Summary</text><text x="1245" y="682" font-size="14" class="muted">Completed</text><circle cx="1215" cy="733" r="11" class="green"/><text x="1245" y="738" font-size="16" font-weight="700">Audit Copy</text><text x="1245" y="764" font-size="14" class="muted">Completed</text></svg>