<svg xmlns="http://www.w3.org/2000/svg" width="1600" height="900" viewBox="0 0 1600 900">
<rect width="1600" height="900" fill="#f8fbff"/><rect x="30" y="18" width="110" height="34" rx="8" fill="#dbe9ff"/><text x="45" y="42" fill="#0c2859" font-family="Arial,sans-serif" font-size="16" font-weight="800">DEMO DATA</text>
<text x="30" y="100" fill="#0c2859" font-family="Arial,sans-serif" font-size="44" font-weight="800">Sales Performance Overview</text><text x="30" y="133" fill="#5c7396" font-family="Arial,sans-serif" font-size="18">Track sales, inventory and account performance across all regions</text>
<g font-family="Arial,sans-serif">
<rect x="20" y="170" width="300" height="160" rx="14" fill="#ffffff" stroke="#d7e2ee"/><text x="135" y="215" fill="#0c2859" font-size="20" font-weight="700">Sales Out</text><text x="135" y="270" fill="#0c2859" font-size="36" font-weight="800">$12.48M</text>
<rect x="335" y="170" width="300" height="160" rx="14" fill="#ffffff" stroke="#d7e2ee"/><text x="450" y="215" fill="#0c2859" font-size="20" font-weight="700">Target</text><text x="450" y="270" fill="#0c2859" font-size="36" font-weight="800">$12.90M</text>
<rect x="650" y="170" width="300" height="160" rx="14" fill="#ffffff" stroke="#d7e2ee"/><text x="765" y="215" fill="#0c2859" font-size="20" font-weight="700">Achievement</text><text x="765" y="270" fill="#09a76c" font-size="36" font-weight="800">96.8%</text>
<rect x="965" y="170" width="300" height="160" rx="14" fill="#ffffff" stroke="#d7e2ee"/><text x="1080" y="215" fill="#0c2859" font-size="20" font-weight="700">Growth</text><text x="1080" y="270" fill="#09a76c" font-size="36" font-weight="800">+8.4%</text>
<rect x="1280" y="170" width="300" height="160" rx="14" fill="#ffffff" stroke="#d7e2ee"/><text x="1395" y="215" fill="#0c2859" font-size="20" font-weight="700">Active Accounts</text><text x="1395" y="270" fill="#0c2859" font-size="36" font-weight="800">1,240</text>
</g>
<rect x="20" y="350" width="760" height="270" rx="14" fill="#ffffff" stroke="#d7e2ee"/><text x="40" y="390" fill="#0c2859" font-family="Arial,sans-serif" font-size="22" font-weight="800">Monthly Sales Out vs Target</text>
<g fill="#09a76c"><rect x="90" y="500" width="18" height="60"/><rect x="140" y="488" width="18" height="72"/><rect x="190" y="476" width="18" height="84"/><rect x="240" y="464" width="18" height="96"/><rect x="290" y="452" width="18" height="108"/><rect x="340" y="440" width="18" height="120"/><rect x="390" y="500" width="18" height="60"/><rect x="440" y="488" width="18" height="72"/><rect x="490" y="476" width="18" height="84"/><rect x="540" y="464" width="18" height="96"/><rect x="590" y="452" width="18" height="108"/><rect x="640" y="440" width="18" height="120"/></g>
<g fill="#d2dce8"><rect x="112" y="482" width="18" height="78"/><rect x="162" y="472" width="18" height="88"/><rect x="212" y="462" width="18" height="98"/><rect x="262" y="452" width="18" height="108"/><rect x="312" y="442" width="18" height="118"/><rect x="362" y="482" width="18" height="78"/><rect x="412" y="472" width="18" height="88"/><rect x="462" y="462" width="18" height="98"/><rect x="512" y="452" width="18" height="108"/><rect x="562" y="442" width="18" height="118"/><rect x="612" y="482" width="18" height="78"/><rect x="662" y="472" width="18" height="88"/></g>
<rect x="800" y="350" width="780" height="270" rx="14" fill="#ffffff" stroke="#d7e2ee"/><text x="825" y="390" fill="#0c2859" font-family="Arial,sans-serif" font-size="22" font-weight="800">Sales Trend &amp; Growth</text><polyline points="850,535 910,515 970,480 1030,470 1090,455 1150,425 1210,440 1270,470 1330,455 1390,430 1450,410 1520,420" fill="none" stroke="#09a76c" stroke-width="4"/><polyline points="850,500 910,485 970,455 1030,445 1090,420 1150,400 1210,415 1270,445 1330,430 1390,405 1450,385 1520,370" fill="none" stroke="#e6a25f" stroke-width="4"/>
<rect x="20" y="640" width="455" height="220" rx="14" fill="#ffffff" stroke="#d7e2ee"/><text x="40" y="680" fill="#0c2859" font-family="Arial,sans-serif" font-size="22" font-weight="800">Sales by Region</text><circle cx="150" cy="765" r="70" fill="none" stroke="#09a76c" stroke-width="35"/><path d="M150 695 A70 70 0 0 1 213 795" fill="none" stroke="#15396d" stroke-width="35"/><path d="M213 795 A70 70 0 0 1 95 818" fill="none" stroke="#e6a25f" stroke-width="35"/><text x="120" y="770" fill="#0c2859" font-family="Arial,sans-serif" font-size="20" font-weight="800">$12.48M</text>
<rect x="495" y="640" width="500" height="220" rx="14" fill="#ffffff" stroke="#d7e2ee"/><text x="520" y="680" fill="#0c2859" font-family="Arial,sans-serif" font-size="22" font-weight="800">Top Products by Sales Out</text><text x="525" y="725" fill="#0c2859" font-family="Arial,sans-serif" font-size="15">1. Horizon Max</text><text x="525" y="755" fill="#0c2859" font-family="Arial,sans-serif" font-size="15">2. Summit Pro</text><text x="525" y="785" fill="#0c2859" font-family="Arial,sans-serif" font-size="15">3. Vertex Plus</text><text x="525" y="815" fill="#0c2859" font-family="Arial,sans-serif" font-size="15">4. Nova Core</text>
<rect x="1015" y="640" width="565" height="220" rx="14" fill="#ffffff" stroke="#d7e2ee"/><text x="1040" y="680" fill="#0c2859" font-family="Arial,sans-serif" font-size="22" font-weight="800">Inventory Status</text><text x="1045" y="725" fill="#0c2859" font-family="Arial,sans-serif" font-size="15">Horizon Max — In Stock</text><text x="1045" y="755" fill="#0c2859" font-family="Arial,sans-serif" font-size="15">Summit Pro — In Stock</text><text x="1045" y="785" fill="#0c2859" font-family="Arial,sans-serif" font-size="15">Vertex Plus — Low Stock</text><text x="1045" y="815" fill="#0c2859" font-family="Arial,sans-serif" font-size="15">Pinnacle X — Critical</text>
</svg>